<?xml version="1.0" encoding="UTF-8"?>
<svg xmlns="http://www.w3.org/2000/svg" xmlns:xlink="http://www.w3.org/1999/xlink" width="566.93pt" height="536.69pt" viewBox="0 0 566.93 536.69" version="1.1">
<defs>
<clipPath id="clip1">
  <path d="M 39 0 L 536 0 L 536 536.691406 L 39 536.691406 Z M 39 0 "/>
</clipPath>
<clipPath id="clip2">
  <path d="M 0 190.3125 L 566.898438 190.3125 L 566.898438 313.90625 L 0 313.90625 Z M 0 190.3125 "/>
</clipPath>
</defs>
<g id="surface1">
<path style=" stroke:none;fill-rule:nonzero;fill:rgb(70.199585%,18.399048%,21.199036%);fill-opacity:1;" d="M 181.621094 362.445313 L 394.457031 362.445313 L 394.457031 300.875 L 181.621094 300.875 L 181.621094 362.445313 "/>
<g clip-path="url(#clip1)" clip-rule="nonzero">
<path style=" stroke:none;fill-rule:evenodd;fill:rgb(70.199585%,18.399048%,21.199036%);fill-opacity:1;" d="M 246.847656 115.996094 L 243.820313 122.339844 L 244.105469 155.210938 L 244.105469 207.691406 L 239.246094 207.691406 L 239.246094 108.734375 C 239.246094 106.847656 239.703125 105.417969 240.617188 104.503906 L 243.074219 101.472656 C 241.359375 92.214844 239.929688 80.894531 238.847656 67.460938 L 209.175781 205.574219 C 208.890625 205.289063 208.433594 205.117188 207.804688 205.117188 L 165.441406 205.117188 L 132.457031 35.390625 L 39.160156 35.390625 L 147.890625 536.691406 L 230.042969 536.691406 L 240.503906 482.496094 L 240.503906 406.289063 L 241.246094 390.683594 L 241.988281 376.050781 C 242.105469 385.824219 243.246094 412.691406 245.476563 456.65625 L 270.117188 330.371094 L 311.90625 330.371094 L 345.175781 501.304688 L 427.15625 501.304688 L 535.886719 0.00390625 L 442.589844 0.00390625 L 402.171875 207.40625 L 400.515625 207.691406 L 374.21875 207.691406 L 329.570313 0.00390625 L 253.367188 0.00390625 L 247.59375 26.300781 L 247.59375 107.820313 C 247.59375 115.421875 247.363281 118.109375 246.847656 115.996094 "/>
</g>
<g clip-path="url(#clip2)" clip-rule="nonzero">
<path style=" stroke:none;fill-rule:evenodd;fill:rgb(70.199585%,18.399048%,21.199036%);fill-opacity:1;" d="M 566.929688 193.628906 L 539.203125 193.628906 L 537.546875 193.171875 L 535.886719 192.886719 L 438.472656 192.886719 C 437.160156 192.886719 436.074219 192.542969 435.15625 191.800781 L 209.175781 191.511719 C 209.175781 190.714844 208.546875 190.3125 207.230469 190.3125 L 93.011719 190.3125 C 91.808594 190.3125 91.183594 190.597656 91.183594 191.171875 C 90.78125 192.3125 90.152344 192.886719 89.238281 192.886719 L 88.152344 192.886719 C 86.835938 192.886719 86.207031 192.597656 86.207031 191.96875 L 85.75 190.882813 L 84.378906 190.3125 L 37.617188 190.597656 C 37.101563 190.484375 36.703125 194.371094 36.414063 202.261719 L 36.300781 214.664063 L 44.132813 228.386719 C 44.648438 228.671875 45.960938 225.699219 48.078125 219.46875 L 50.9375 274.976563 C 50.023438 288.867188 49.222656 295.84375 48.535156 295.84375 L 36.757813 240.789063 L 34.1875 242.90625 L 31.613281 245.480469 C 26.753906 283.210938 24.066406 301.902344 23.4375 301.617188 L 13.71875 290.867188 L 9.203125 290.410156 L 4.800781 291.042969 C 0.972656 304.132813 -0.570313 310.707031 0.113281 310.707031 L 46.589844 310.707031 C 47.90625 310.707031 48.421875 310.191406 48.25 309.164063 L 48.535156 307.335938 C 48.707031 306.53125 49.050781 306.132813 49.5625 306.132813 C 50.59375 306.132813 51.105469 306.589844 51.105469 307.507813 C 50.9375 308.535156 51.449219 309.050781 52.765625 309.050781 L 61.226563 309.050781 C 62.425781 309.050781 62.941406 308.765625 62.769531 308.136719 L 62.769531 306.933594 L 63.226563 306.132813 C 63.796875 306.132813 64.085938 306.648438 64.085938 307.675781 L 64.085938 312.363281 C 64.085938 313.335938 64.714844 313.851563 65.914063 313.851563 L 522.453125 313.734375 C 523.652344 313.734375 524.226563 313.277344 524.226563 312.363281 L 524.226563 292.699219 L 515.308594 275.894531 L 514.734375 281.324219 L 511.25 284.695313 L 517.59375 262 L 512.621094 253.652344 L 508.21875 258.628906 L 503.246094 243.820313 L 505.359375 237.304688 L 508.046875 236.445313 L 508.046875 229.1875 L 515.648438 229.1875 L 528.796875 258.628906 L 534.972656 264.574219 L 533.484375 247.308594 L 537.71875 250.050781 L 540.117188 203.289063 C 540.117188 202.890625 542.460938 204.433594 547.09375 207.976563 L 553.894531 213.292969 L 566.929688 193.628906 "/>
</g>
<path style=" stroke:none;fill-rule:evenodd;fill:rgb(100%,100%,100%);fill-opacity:1;" d="M 106.160156 202.375 L 119.023438 202.375 L 129.597656 266.058594 L 129.882813 266.058594 L 138.515625 202.375 L 153.207031 202.375 L 137.144531 302.246094 L 123.996094 302.246094 L 112.675781 236.273438 L 112.503906 236.273438 L 101.929688 302.246094 L 88.78125 302.246094 L 71.515625 202.375 L 86.207031 202.375 L 95.699219 266.058594 L 96.039063 266.058594 L 106.160156 202.375 "/>
<path style=" stroke:none;fill-rule:nonzero;fill:rgb(100%,100%,100%);fill-opacity:1;" d="M 165.15625 302.246094 L 180.878906 302.246094 L 180.878906 202.375 L 165.15625 202.375 L 165.15625 302.246094 "/>
<path style=" stroke:none;fill-rule:evenodd;fill:rgb(100%,100%,100%);fill-opacity:1;" d="M 212.207031 239.878906 L 212.207031 302.246094 L 198.140625 302.246094 L 198.140625 202.375 L 212.492188 202.375 L 231.585938 259.542969 L 231.871094 259.542969 L 231.871094 202.375 L 245.933594 202.375 L 245.933594 302.246094 L 232.328125 302.246094 L 212.378906 239.878906 L 212.207031 239.878906 "/>
<path style=" stroke:none;fill-rule:evenodd;fill:rgb(100%,100%,100%);fill-opacity:1;" d="M 272.859375 280.121094 L 270.117188 302.246094 L 255.023438 302.246094 L 271.660156 202.375 L 291.152344 202.375 L 307.789063 302.246094 L 292.699219 302.246094 L 289.953125 280.121094 Z M 275.144531 265.144531 L 287.667969 265.144531 L 281.492188 222.324219 L 281.320313 222.324219 L 275.144531 265.144531 "/>
<path style=" stroke:none;fill-rule:evenodd;fill:rgb(100%,100%,100%);fill-opacity:1;" d="M 358.898438 202.375 L 379.476563 202.375 L 379.476563 302.246094 L 365.871094 302.246094 L 365.871094 224.15625 L 365.585938 224.15625 L 351.523438 302.246094 L 343.917969 302.246094 L 329.855469 224.15625 L 329.570313 224.15625 L 329.570313 302.246094 L 315.964844 302.246094 L 315.964844 202.375 L 336.542969 202.375 L 347.578125 260.800781 L 347.863281 260.800781 L 358.898438 202.375 "/>
<path style=" stroke:none;fill-rule:evenodd;fill:rgb(100%,100%,100%);fill-opacity:1;" d="M 405.660156 280.121094 L 402.914063 302.246094 L 387.824219 302.246094 L 404.460938 202.375 L 423.953125 202.375 L 440.589844 302.246094 L 425.496094 302.246094 L 422.753906 280.121094 Z M 407.945313 265.144531 L 420.464844 265.144531 L 414.292969 222.324219 L 414.121094 222.324219 L 407.945313 265.144531 "/>
<path style=" stroke:none;fill-rule:evenodd;fill:rgb(100%,100%,100%);fill-opacity:1;" d="M 470.085938 265.886719 L 459.226563 302.246094 L 443.90625 302.246094 L 461.796875 249.882813 L 445.164063 202.375 L 460.597656 202.375 L 470.085938 233.988281 L 470.429688 233.988281 L 479.007813 202.375 L 494.441406 202.375 L 478.71875 249.882813 L 496.269531 302.246094 L 480.835938 302.246094 L 470.429688 265.886719 L 470.085938 265.886719 "/>
<path style=" stroke:none;fill-rule:evenodd;fill:rgb(100%,100%,100%);fill-opacity:1;" d="M 227.46875 316.765625 C 229.183594 318.367188 230.042969 320.996094 230.042969 324.597656 C 230.042969 328.199219 229.183594 330.832031 227.46875 332.488281 C 225.753906 334.089844 223.011719 334.890625 219.292969 334.890625 L 216.722656 334.890625 L 216.722656 349.125 L 210.660156 349.125 L 210.660156 314.480469 L 219.292969 314.480469 C 223.011719 314.480469 225.753906 315.222656 227.46875 316.765625 Z M 223.066406 320.367188 C 222.382813 319.683594 221.007813 319.339844 219.007813 319.339844 L 216.722656 319.339844 L 216.722656 330.027344 L 219.007813 330.027344 L 223.066406 329 C 223.808594 328.199219 224.152344 326.714844 224.152344 324.597656 C 224.152344 322.597656 223.808594 321.167969 223.066406 320.367188 "/>
<path style=" stroke:none;fill-rule:evenodd;fill:rgb(100%,100%,100%);fill-opacity:1;" d="M 264.515625 322.769531 L 264.515625 340.777344 C 264.515625 343.40625 263.769531 345.523438 262.285156 347.121094 C 260.625 348.839844 258.339844 349.695313 255.308594 349.695313 C 252.394531 349.695313 250.105469 348.839844 248.507813 347.121094 C 246.964844 345.523438 246.21875 343.40625 246.21875 340.777344 L 246.21875 322.769531 C 246.21875 320.195313 246.964844 318.140625 248.507813 316.597656 C 250.105469 314.765625 252.394531 313.851563 255.308594 313.851563 C 258.339844 313.851563 260.625 314.765625 262.285156 316.597656 C 263.769531 318.140625 264.515625 320.195313 264.515625 322.769531 Z M 252.109375 322.941406 L 252.109375 340.664063 C 252.109375 343.179688 253.195313 344.4375 255.308594 344.4375 C 257.425781 344.4375 258.511719 343.179688 258.511719 340.664063 L 258.511719 322.941406 C 258.511719 320.425781 257.425781 319.167969 255.308594 319.167969 C 253.195313 319.167969 252.109375 320.425781 252.109375 322.941406 "/>
<path style=" stroke:none;fill-rule:evenodd;fill:rgb(100%,100%,100%);fill-opacity:1;" d="M 287.378906 336.832031 L 287.378906 349.125 L 281.492188 349.125 L 281.492188 314.480469 L 287.378906 314.480469 L 287.378906 327.34375 L 287.550781 327.34375 L 293.726563 314.480469 L 299.785156 314.480469 L 293.269531 327.34375 L 300.527344 349.125 L 294.46875 349.125 L 289.667969 333.0625 L 289.496094 333.0625 L 287.378906 336.832031 "/>
<path style=" stroke:none;fill-rule:evenodd;fill:rgb(100%,100%,100%);fill-opacity:1;" d="M 320.480469 333.859375 L 320.480469 343.980469 L 331.113281 343.980469 L 331.113281 349.125 L 314.476563 349.125 L 314.476563 314.480469 L 330.484375 314.480469 L 330.484375 319.625 L 320.480469 319.625 L 320.480469 328.542969 L 328.199219 328.542969 L 328.199219 333.859375 L 320.480469 333.859375 "/>
<path style=" stroke:none;fill-rule:evenodd;fill:rgb(100%,100%,100%);fill-opacity:1;" d="M 363.296875 316.765625 C 364.957031 318.367188 365.757813 320.996094 365.757813 324.597656 C 365.757813 329.230469 364.386719 332.203125 361.640625 333.402344 L 366.613281 349.125 L 360.613281 349.125 L 356.324219 334.71875 L 353.351563 334.890625 L 353.351563 349.125 L 347.292969 349.125 L 347.292969 314.480469 L 355.753906 314.480469 C 359.183594 314.480469 361.699219 315.222656 363.296875 316.765625 Z M 353.351563 319.339844 L 353.351563 330.027344 L 355.46875 330.027344 L 358.78125 329 C 359.46875 328.199219 359.8125 326.714844 359.8125 324.597656 C 359.8125 322.597656 359.46875 321.167969 358.78125 320.367188 C 358.152344 319.683594 357.066406 319.339844 355.46875 319.339844 L 353.351563 319.339844 "/>
</g>
</svg>
